<svg xmlns="http://www.w3.org/2000/svg" width="1024.1" height="873.4" viewBox="0 0 2964 2528"><path d="M1263 0h437c1259 6 1265 8 1264 1264-1 1244 1 1246-1264 1264h-437C-2 2522-2 2523-1 1264 1 17 4 18 1263 0Z" style="fill-rule:evenodd;fill:#1e2129"/><path d="M1977 316a346 346 0 0 1 256 111c28 32 59 77 78 148 47-3 99 9 145 31a273 273 0 0 1 147 218c3 36-1 73-16 112 9 13 21 17 31 29a273 273 0 0 1 80 248 259 259 0 0 1-116 164c-33 23-98 46-152 45-53 3-114-14-158-38-64 70-130 138-196 207 4 61 14 123 25 185 9 51 30 107 41 160 0 28-10 40-32 47-43 2-86 0-131 1l-117-1c-30 0-43-39-29-75 16-59 35-117 43-178 7-43 12-87 17-133-5-15-17-16-24-28l-173-181c1-2-2-1-4 0-71 35-155 45-233 23a271 271 0 0 1-176-163c-27-66-21-134 7-198 25-52 52-81 94-113-20-47-25-98-12-148 7-38 26-76 39-94a302 302 0 0 1 252-122 322 322 0 0 1 142-204c37-25 109-53 172-53Zm-68 914c1-2 3 3 6 2 1 31-3 64-3 97-4 32-2 64-7 99-18-13-32-29-49-43-17-13-29-31-49-43 17-17 37-32 53-53 18-17 30-44 49-59Zm148 0c23 16 32 42 52 62 3-2 0 3 4 2 15 18 32 34 51 50-24 19-46 40-70 61 0 1 1 4-2 4-9 5-14 16-26 21-3 1 0-2-3-5-4-64-6-129-6-195Z" style="fill:#4cae4f;opacity:.6;fill-rule:evenodd"/><path d="m814 1266-574 526 113 129 709-657-709-658-113 130Zm1778 948H1404v169h1188v-169Z" data-name="&gt;_" style="fill:#fff;fill-rule:evenodd"/></svg>